# xmcd
#
# Track frame offsets:
#	150
#	12777
#	26595
#	40397
#	55462
#	71592
#	84322
#	101570
#	125642
#	141000
#	159155
#	176777
#	188422
#	203475
#	223720
#	245390
#	256002
#	271687
#	288655
#	299657
#
# Disc length: 4183 seconds
#
# Revision: 7
# Processed by: cddbd v1.5.2PL0 Copyright (c) Steve Scherf et al.
# Submitted via: audiograbber 1.83.01
#
DISCID=1f105514
DTITLE=Dwight Yoakam - The Very Best Of Dwight Yoakam
DYEAR=2004
DGENRE=Country
TTITLE0=Honky Tonk Man
TTITLE1=Guitars, Cadillacs
TTITLE2=Little Sister
TTITLE3=Little Ways
TTITLE4=Please, Please Baby
TTITLE5=Streets Of Bakersfield w Buck Owens
TTITLE6=I Sang Dixie
TTITLE7=Long White Cadillac
TTITLE8=Turn It On, Turn It Up, Turn Me Loose
TTITLE9=You're The One
TTITLE10=Suspicious Minds
TTITLE11=It Only Hurts When I Cry
TTITLE12=Ain't That Lonely Yet
TTITLE13=A Thousand Miles From Nowhere
TTITLE14=Fast As You
TTITLE15=Crazy Little Thing Called Love
TTITLE16=I Want You To Want Me
TTITLE17=Things Change
TTITLE18=The Late Great Golden State
TTITLE19=The Back Of Your Hand
EXTD=YEAR: 2004
EXTT0=
EXTT1=
EXTT2=
EXTT3=
EXTT4=
EXTT5=
EXTT6=
EXTT7=
EXTT8=
EXTT9=
EXTT10=
EXTT11=
EXTT12=
EXTT13=
EXTT14=
EXTT15=
EXTT16=
EXTT17=
EXTT18=
EXTT19=
PLAYORDER=
